<svg xmlns="http://www.w3.org/2000/svg" viewBox="0 0 916.56 324.79"><defs><style>.cls-1{fill:#6281a0;}.cls-2{fill:#3c5b81;}</style></defs><title>Asset 2</title><g id="Layer_2" data-name="Layer 2"><g id="Layer_1-2" data-name="Layer 1"><path class="cls-1" d="M714.65,154.84v170H0V15.18C18.6,22.62,37,47.5,44.41,80.23c13.43,59.46,83.44,75.41,108.38,61.2S227.6,57.21,281.3,54.33,366.66,127.22,417.49,133s59.47,8.63,88.24-59.47,70-86.31,99.74-65.21,58.51,96.86,73.85,116C690.44,138.25,706.6,149.62,714.65,154.84Z"/><path class="cls-2" d="M916.56,154.84v170H0V138.51c13.9,2.33,60.84,8.45,90-9.37,34.53-21.1,50.83-42.2,71.93-92.07s71-16.31,84.4,43.16,83.44,75.41,108.38,61.2,74.81-84.22,128.51-87.1S568.57,127.22,619.4,133s59.47,8.63,88.24-59.47,70-86.31,99.74-65.21,58.51,96.86,73.85,116C892.35,138.25,908.51,149.62,916.56,154.84Z"/></g></g></svg>